<?xml version="1.0" encoding="UTF-8"?>
<svg id="Layer_1" data-name="Layer 1" xmlns="http://www.w3.org/2000/svg" viewBox="0 0 1234.07 265.24">
  <path d="M579.79,209.1l-1.08,40.95h-5.08l1.08-40.95h5.08Z" fill="#686c77"></path>
  <path d="M592.6,250.05l1.08-40.95h5.54l12.06,20.72c2.79,4.8,4.95,9.11,6.71,13.3l.12-.06c-.32-5.47-.31-10.45-.14-16.83l.45-17.13h4.79l-1.08,40.95h-5.14l-11.94-20.78c-2.62-4.56-5.13-9.24-6.99-13.67l-.18.06c.16,5.16.14,10.08-.04,16.89l-.46,17.5h-4.79Z" fill="#686c77"></path>
  <path d="M636.39,209.65c3.11-.49,6.79-.85,10.82-.85,7.3,0,12.44,1.76,15.8,5.1,3.41,3.34,5.33,8.08,5.16,14.7-.18,6.68-2.3,12.15-6.08,15.92-3.78,3.83-9.9,5.89-17.55,5.89-3.62,0-6.65-.18-9.21-.48l1.06-40.28ZM640.52,245.86c1.28.24,3.14.3,5.13.3,10.86,0,16.92-6.32,17.21-17.38.31-9.66-4.78-15.8-15.52-15.8-2.63,0-4.62.24-5.97.55l-.85,32.32Z" fill="#686c77"></path>
  <path d="M683.62,209.1l-.64,24.24c-.24,9.17,3.57,13.06,8.82,13.06,5.84,0,9.68-4.01,9.92-13.06l.64-24.24h5.14l-.63,23.88c-.33,12.58-6.83,17.74-15.35,17.74-8.05,0-14-4.8-13.67-17.5l.63-24.12h5.14Z" fill="#686c77"></path>
  <path d="M716.68,243.61c2.24,1.46,5.53,2.67,9.04,2.67,5.2,0,8.3-2.86,8.41-6.99.1-3.83-1.94-6.02-7.2-8.14-6.36-2.37-10.24-5.83-10.08-11.6.17-6.38,5.37-11.12,13.02-11.12,4.03,0,6.92.97,8.64,2.01l-1.51,4.31c-1.26-.73-3.86-1.94-7.42-1.94-5.37,0-7.5,3.34-7.57,6.14-.1,3.83,2.24,5.71,7.61,7.9,6.58,2.67,9.88,6.02,9.72,12.03-.17,6.32-4.8,11.79-14.08,11.79-3.79,0-7.91-1.15-9.97-2.61l1.4-4.43Z" fill="#686c77"></path>
  <path d="M762.08,213.6h-11.96l.12-4.5h29.12l-.12,4.5h-12.02l-.96,36.45h-5.14l.96-36.45Z" fill="#686c77"></path>
  <path d="M787.41,209.65c2.58-.55,6.27-.85,9.77-.85,5.43,0,8.9,1.03,11.29,3.34,1.94,1.82,2.97,4.62,2.89,7.78-.14,5.41-3.51,8.99-7.69,10.45v.18c3,1.09,4.73,4.01,5.56,8.26,1.13,5.71,1.96,9.66,2.74,11.24h-5.25c-.61-1.15-1.39-4.68-2.37-9.78-1.02-5.65-3.06-7.78-7.67-7.96h-4.79l-.47,17.74h-5.08l1.06-40.4ZM792,228.3h5.19c5.43,0,8.95-3.1,9.08-7.78.14-5.29-3.48-7.59-8.84-7.65-2.45,0-4.21.24-5.03.48l-.39,14.95Z" fill="#686c77"></path>
  <path d="M832.65,209.1l-1.08,40.95h-5.08l1.08-40.95h5.08Z" fill="#686c77"></path>
  <path d="M852.16,237.17l-4.42,12.88h-5.25l14.44-40.95h6.13l12.35,40.95h-5.43l-3.86-12.88h-13.95ZM865.16,233.04l-3.54-11.79c-.8-2.67-1.33-5.1-1.85-7.47h-.12c-.65,2.43-1.36,4.92-2.18,7.41l-4.16,11.85h11.85Z" fill="#686c77"></path>
  <path d="M882.17,209.1h5.08l-.96,36.51h16.81l-.12,4.43h-21.89l1.08-40.95Z" fill="#686c77"></path>
  <path d="M932.48,243.61c2.24,1.46,5.53,2.67,9.03,2.67,5.2,0,8.3-2.86,8.41-6.99.1-3.83-1.94-6.02-7.2-8.14-6.36-2.37-10.24-5.83-10.08-11.6.17-6.38,5.37-11.12,13.02-11.12,4.03,0,6.92.97,8.64,2.01l-1.51,4.31c-1.26-.73-3.86-1.94-7.42-1.94-5.37,0-7.5,3.34-7.57,6.14-.1,3.83,2.24,5.71,7.61,7.9,6.58,2.67,9.88,6.02,9.72,12.03-.17,6.32-4.8,11.79-14.08,11.79-3.79,0-7.91-1.15-9.97-2.61l1.4-4.43Z" fill="#686c77"></path>
  <path d="M971.68,209.59c2.46-.43,5.68-.79,9.77-.79,5.02,0,8.66,1.22,10.94,3.4,2.11,1.94,3.31,4.92,3.22,8.57-.1,3.71-1.23,6.62-3.27,8.75-2.76,2.98-7.18,4.5-12.14,4.5-1.52,0-2.92-.06-4.08-.36l-.43,16.4h-5.08l1.06-40.46ZM976.24,229.33c1.1.3,2.5.43,4.19.43,6.13,0,9.94-3.1,10.09-8.75.14-5.41-3.47-8.02-9.07-8.02-2.22,0-3.92.18-4.8.42l-.42,15.92Z" fill="#686c77"></path>
  <path d="M1011.98,237.17l-4.42,12.88h-5.25l14.44-40.95h6.13l12.35,40.95h-5.43l-3.86-12.88h-13.95ZM1024.99,233.04l-3.54-11.79c-.8-2.67-1.33-5.1-1.85-7.47h-.12c-.65,2.43-1.36,4.92-2.18,7.41l-4.16,11.85h11.85Z" fill="#686c77"></path>
  <polygon points="560.32 223.73 479.65 226.93 560.32 230.12 560.32 223.73" fill="#686c77" fill-rule="evenodd"></polygon>
  <polygon points="1046.17 223.73 1126.84 226.93 1046.17 230.12 1046.17 223.73" fill="#686c77" fill-rule="evenodd"></polygon>
  <polygon points="1094.13 168.57 1130.88 168.57 1159.45 133.38 1185.08 168.57 1225.03 168.57 1183.3 108.6 1234.07 47.06 1195.74 47.06 1165.72 88.08 1139.02 47.06 1100.14 47.06 1142.55 110.94 1094.13 168.57" fill="#1d4370"></polygon>
  <path d="M950.09,168.57h35.69l11.64-24.64h51.45l8.33,24.64h36.42l-37.9-121.51h-44.54l-61.1,121.51ZM1006.9,118.71l22.27-46.54,14.4,46.54h-36.67Z" fill="#1d4370"></path>
  <polygon points="746.05 168.57 780.44 168.57 791.01 72.55 828.27 72.55 831.17 49.1 721.36 49.1 718.47 72.55 757.9 72.55 746.05 168.57" fill="#1d4370"></polygon>
  <polygon points="635.17 168.57 732.77 168.57 736.04 142.08 672.82 142.08 684.55 47.06 650.17 47.06 635.17 168.57" fill="#1d4370"></polygon>
  <polygon points="415.9 168.57 461.11 168.57 519.42 47.06 488.19 47.06 442.89 141.67 416.61 47.06 379.97 47.06 415.9 168.57" fill="#1d4370"></polygon>
  <path d="M917.83,89.63c.56-5.67-1.15-9.79-5.1-12.34-3.95-2.55-9.77-3.84-17.41-3.84h-20.53l-3.27,32.07h20.53c7.66,0,13.73-.15,18.21-3.04,4.49-2.89,7.01-7.17,7.56-12.85M919.36,124.79l28.19,43.56h-37.16l-24.35-41.09-17.78-.44-4.24,41.54h-34.06l14.52-118.14,57.89-.32c7.96-.04,15.22.76,21.79,2.28,6.56,1.52,12.8,2.92,16.6,6.75,21.19,21.38,14.27,59.48-21.39,65.87Z" fill="#1d4370"></path>
  <path d="M485.07,168.57h35.69l11.64-24.64h51.45l8.33,24.64h36.42l-37.9-121.51h-44.54l-61.1,121.51ZM541.88,118.71l22.27-46.54,14.4,46.54h-36.67Z" fill="#1d4370"></path>
  <polygon points="126.59 206.75 209.36 67.42 230.56 66.66 270.79 0 185.59 .76 124 101.28 69.98 1.5 0 1.5 126.59 206.75" fill="#1d4370"></polygon>
  <polygon points="272.75 139.32 358.52 .74 293.13 0 240.41 86.71 272.75 139.32" fill="#686c77"></polygon>
  <polygon points="198.12 258.61 234.04 200.54 270.44 258.61 330.53 258.61 219.65 82.06 189.57 131.9 200.68 149.92 134.62 258.61 198.12 258.61" fill="#686c77"></polygon>
</svg>